<svg width="513" height="551" viewBox="0 0 513 551" fill="none" xmlns="http://www.w3.org/2000/svg">
<g filter="url(#filter0_d_1433_80)">
<path d="M4 176.174L80.2402 132.156C95.3321 123.443 106.564 117.709 113.937 114.955C121.396 112.051 128.031 111.224 133.842 112.476C139.74 113.678 144.641 117.008 148.544 122.467C152.447 127.825 154.399 135.261 154.399 144.776C154.399 155.091 151.97 165.958 147.113 177.376C142.343 188.743 135.837 198.959 127.598 208.022C139.22 205.218 148.154 206.72 154.399 212.529C160.644 218.338 163.766 227.602 163.766 240.322C163.766 250.337 161.728 261.279 157.651 273.147C153.661 284.865 148.154 295.606 141.128 305.371C134.189 314.986 125.603 323.399 115.368 330.61C108.95 335.117 93.4673 344.556 68.9212 358.928L4 396.41L4 176.174ZM42.5104 190.596V241.524L67.7503 226.951C82.7555 218.288 92.0795 212.654 95.7224 210.05C102.314 205.343 107.475 199.76 111.205 193.3C115.021 186.69 116.929 179.829 116.929 172.718C116.929 165.908 115.281 161.351 111.985 159.048C108.776 156.594 103.962 156.769 97.5438 159.573C93.7275 161.276 82.7555 167.36 64.6279 177.826L42.5104 190.596ZM42.5104 278.18V337.07L78.1585 316.488C92.0362 308.476 100.84 302.942 104.569 299.888C110.294 295.381 114.934 289.797 118.49 283.137C122.133 276.327 123.955 269.016 123.955 261.204C123.955 254.594 122.567 249.786 119.791 246.782C117.016 243.777 112.983 242.75 107.692 243.702C102.488 244.603 91.1254 250.112 73.6049 260.227L42.5104 278.18Z" fill="url(#paint0_linear_1433_80)"/>
<path d="M199.987 211.598L237.456 185.758C239.711 198.979 244.265 207.016 251.117 209.87C258.056 212.674 267.38 210.696 279.089 203.936C291.492 196.775 300.816 188.387 307.061 178.773C313.393 169.008 316.559 160.069 316.559 151.957C316.559 146.749 315.214 143.118 312.526 141.065C309.923 138.862 305.326 138.311 298.735 139.413C294.224 140.214 283.946 142.943 267.9 147.6C247.257 153.609 232.773 154.711 224.446 150.905C212.737 145.547 206.882 134.154 206.882 116.728C206.882 105.511 209.614 93.4673 215.079 80.5976C220.63 67.5777 228.566 55.5343 238.887 44.4674C249.296 33.3504 261.829 23.5604 276.487 15.0975C300.426 1.27636 318.423 -3.05526 330.48 2.10262C342.623 7.21043 348.998 19.7045 349.605 39.5849L311.094 63.7719C309.446 53.406 305.89 47.3468 300.426 45.5941C295.048 43.6912 286.939 45.8695 276.097 52.1291C264.908 58.589 256.148 66.3008 249.816 75.2645C245.739 81.0233 243.701 86.757 243.701 92.4658C243.701 97.6737 245.609 101.029 249.426 102.531C254.283 104.434 266.079 102.531 284.814 96.8224C303.548 91.1137 317.383 88.4346 326.316 88.7851C335.337 88.9854 342.362 92.3906 347.393 99.0007C352.51 105.461 355.069 115.651 355.069 129.572C355.069 142.192 352.033 155.762 345.962 170.285C339.89 184.807 331.304 197.977 320.202 209.795C309.099 221.513 295.265 232.154 278.699 241.719C254.586 255.64 236.069 259.922 223.145 254.564C210.221 249.105 202.502 234.783 199.987 211.598Z" fill="url(#paint1_linear_1433_80)"/>
</g>
<path d="M82.6841 268.478L158.924 224.461C174.016 215.748 185.248 210.014 192.621 207.26C200.08 204.355 206.715 203.529 212.527 204.781C218.425 205.983 223.325 209.313 227.228 214.771C231.131 220.129 233.083 227.566 233.083 237.08C233.083 247.396 230.654 258.263 225.797 269.68C221.027 281.048 214.521 291.263 206.282 300.327C217.904 297.523 226.838 299.025 233.083 304.834C239.328 310.643 242.45 319.907 242.45 332.626C242.45 342.642 240.412 353.583 236.335 365.452C232.346 377.17 226.838 387.911 219.812 397.676C212.874 407.291 204.287 415.703 194.052 422.914C187.634 427.421 172.151 436.861 147.605 451.233L82.6841 488.715L82.6841 268.478ZM121.194 282.9V333.828L146.434 319.256C161.44 310.593 170.764 304.959 174.406 302.355C180.998 297.648 186.159 292.064 189.889 285.605C193.705 278.994 195.613 272.134 195.613 265.023C195.613 258.213 193.965 253.656 190.669 251.352C187.46 248.898 182.646 249.074 176.228 251.878C172.412 253.581 161.44 259.665 143.312 270.131L121.194 282.9ZM121.194 370.484V429.374L156.843 408.793C170.72 400.781 179.524 395.247 183.253 392.193C188.978 387.686 193.618 382.102 197.174 375.442C200.817 368.631 202.639 361.32 202.639 353.508C202.639 346.898 201.251 342.091 198.475 339.086C195.7 336.082 191.667 335.055 186.376 336.007C181.172 336.908 169.81 342.416 152.289 352.532L121.194 370.484Z" fill="url(#paint2_linear_1433_80)"/>
<path d="M278.671 303.903L316.14 278.063C318.395 291.283 322.949 299.321 329.801 302.175C336.74 304.979 346.064 303.001 357.773 296.241C370.176 289.08 379.5 280.692 385.745 271.077C392.077 261.312 395.243 252.374 395.243 244.261C395.243 239.053 393.898 235.423 391.21 233.37C388.608 231.166 384.011 230.616 377.419 231.717C372.908 232.518 362.63 235.248 346.584 239.905C325.941 245.914 311.457 247.016 303.13 243.21C291.421 237.852 285.566 226.459 285.566 209.033C285.566 197.815 288.298 185.772 293.763 172.902C299.314 159.882 307.25 147.839 317.571 136.772C327.98 125.655 340.513 115.865 355.171 107.402C379.11 93.581 397.108 89.2494 409.164 94.4073C421.307 99.5151 427.682 112.009 428.289 131.89L389.778 156.077C388.131 145.711 384.574 139.651 379.11 137.899C373.732 135.996 365.623 138.174 354.781 144.434C343.592 150.894 334.832 158.605 328.5 167.569C324.424 173.328 322.385 179.062 322.385 184.77C322.385 189.978 324.293 193.334 328.11 194.836C332.967 196.739 344.763 194.836 363.498 189.127C382.233 183.418 396.067 180.739 405 181.09C414.021 181.29 421.046 184.695 426.077 191.305C431.194 197.765 433.753 207.956 433.753 221.877C433.753 234.496 430.717 248.067 424.646 262.589C418.575 277.112 409.988 290.282 398.886 302.1C387.784 313.818 373.949 324.459 357.383 334.024C333.271 347.945 314.753 352.226 301.829 346.868C288.906 341.41 281.186 327.088 278.671 303.903Z" fill="url(#paint3_linear_1433_80)"/>
<path d="M161.367 330.005L237.607 285.987C252.699 277.274 263.931 271.54 271.303 268.786C278.763 265.882 285.398 265.055 291.209 266.307C297.107 267.509 302.008 270.839 305.911 276.298C309.814 281.656 311.765 289.092 311.765 298.607C311.765 308.923 309.337 319.789 304.48 331.207C299.709 342.574 293.204 352.79 284.964 361.853C296.587 359.049 305.52 360.551 311.765 366.36C318.01 372.169 321.133 381.433 321.133 394.153C321.133 404.168 319.095 415.11 315.018 426.978C311.028 438.696 305.52 449.437 298.495 459.202C291.556 468.817 282.969 477.23 272.735 484.441C266.316 488.948 250.834 498.387 226.288 512.759L161.367 550.241L161.367 330.005ZM199.877 344.427V395.355L225.117 380.782C240.122 372.119 249.446 366.486 253.089 363.882C259.681 359.174 264.842 353.591 268.571 347.131C272.388 340.521 274.296 333.66 274.296 326.549C274.296 319.739 272.648 315.182 269.352 312.879C266.143 310.425 261.329 310.6 254.911 313.404C251.094 315.107 240.122 321.191 221.995 331.657L199.877 344.427ZM199.877 432.011V490.901L235.525 470.319C249.403 462.307 258.206 456.774 261.936 453.719C267.661 449.212 272.301 443.628 275.857 436.968C279.5 430.158 281.321 422.847 281.321 415.035C281.321 408.425 279.934 403.617 277.158 400.613C274.383 397.608 270.349 396.582 265.059 397.533C259.854 398.434 248.492 403.943 230.972 414.058L199.877 432.011Z" fill="url(#paint4_linear_1433_80)"/>
<path d="M357.353 365.429L394.823 339.589C397.078 352.81 401.632 360.847 408.484 363.701C415.423 366.506 424.747 364.528 436.456 357.767C448.859 350.606 458.183 342.218 464.428 332.604C470.76 322.839 473.925 313.9 473.925 305.788C473.925 300.58 472.581 296.949 469.892 294.896C467.29 292.693 462.693 292.142 456.101 293.244C451.591 294.045 441.313 296.774 425.267 301.431C404.624 307.44 390.139 308.542 381.813 304.736C370.103 299.378 364.249 287.986 364.249 270.559C364.249 259.342 366.981 247.298 372.445 234.429C377.996 221.409 385.933 209.365 396.254 198.298C406.662 187.181 419.196 177.391 433.854 168.929C457.793 155.107 475.79 150.776 487.846 155.934C499.989 161.041 506.364 173.536 506.971 193.416L468.461 217.603C466.813 207.237 463.257 201.178 457.793 199.425C452.415 197.522 444.305 199.701 433.463 205.96C422.275 212.42 413.514 220.132 407.183 229.096C403.106 234.854 401.068 240.588 401.068 246.297C401.068 251.505 402.976 254.86 406.792 256.362C411.65 258.265 423.446 256.362 442.18 250.653C460.915 244.945 474.749 242.266 483.683 242.616C492.704 242.816 499.729 246.222 504.76 252.832C509.877 259.292 512.436 269.482 512.436 283.404C512.436 296.023 509.4 309.594 503.329 324.116C497.257 338.638 488.67 351.808 477.568 363.626C466.466 375.344 452.632 385.985 436.066 395.55C411.953 409.471 393.435 413.753 380.512 408.395C367.588 402.936 359.869 388.614 357.353 365.429Z" fill="url(#paint5_linear_1433_80)"/>
<defs>
<filter id="filter0_d_1433_80" x="0" y="0" width="359.069" height="404.41" filterUnits="userSpaceOnUse" color-interpolation-filters="sRGB">
<feFlood flood-opacity="0" result="BackgroundImageFix"/>
<feColorMatrix in="SourceAlpha" type="matrix" values="0 0 0 0 0 0 0 0 0 0 0 0 0 0 0 0 0 0 127 0" result="hardAlpha"/>
<feOffset dy="4"/>
<feGaussianBlur stdDeviation="2"/>
<feComposite in2="hardAlpha" operator="out"/>
<feColorMatrix type="matrix" values="0 0 0 0 0 0 0 0 0 0 0 0 0 0 0 0 0 0 0.25 0"/>
<feBlend mode="normal" in2="BackgroundImageFix" result="effect1_dropShadow_1433_80"/>
<feBlend mode="normal" in="SourceGraphic" in2="effect1_dropShadow_1433_80" result="shape"/>
</filter>
<linearGradient id="paint0_linear_1433_80" x1="-15.5148" y1="307.685" x2="370.838" y2="307.685" gradientUnits="userSpaceOnUse">
<stop offset="0.36" stop-color="#28292E"/>
<stop offset="1" stop-color="#0C0C0E"/>
<stop offset="1" stop-color="#0A0A0C"/>
</linearGradient>
<linearGradient id="paint1_linear_1433_80" x1="-15.5148" y1="307.685" x2="370.838" y2="307.685" gradientUnits="userSpaceOnUse">
<stop offset="0.36" stop-color="#28292E"/>
<stop offset="1" stop-color="#0C0C0E"/>
<stop offset="1" stop-color="#0A0A0C"/>
</linearGradient>
<linearGradient id="paint2_linear_1433_80" x1="63.1693" y1="399.99" x2="449.522" y2="399.99" gradientUnits="userSpaceOnUse">
<stop stop-color="#51525C"/>
<stop offset="1" stop-color="#28292E"/>
</linearGradient>
<linearGradient id="paint3_linear_1433_80" x1="63.1693" y1="399.99" x2="449.522" y2="399.99" gradientUnits="userSpaceOnUse">
<stop stop-color="#51525C"/>
<stop offset="1" stop-color="#28292E"/>
</linearGradient>
<linearGradient id="paint4_linear_1433_80" x1="141.852" y1="461.516" x2="528.205" y2="461.516" gradientUnits="userSpaceOnUse">
<stop stop-color="#B0B1B6"/>
<stop offset="1" stop-color="#51525C"/>
</linearGradient>
<linearGradient id="paint5_linear_1433_80" x1="141.852" y1="461.516" x2="528.205" y2="461.516" gradientUnits="userSpaceOnUse">
<stop stop-color="#B0B1B6"/>
<stop offset="1" stop-color="#51525C"/>
</linearGradient>
</defs>
</svg>
